<?xml version="1.0" standalone="no"?>
<!DOCTYPE svg PUBLIC "-//W3C//DTD SVG 20010904//EN"
 "http://www.w3.org/TR/2001/REC-SVG-20010904/DTD/svg10.dtd">
<svg version="1.0" xmlns="http://www.w3.org/2000/svg"
 width="945.000000pt" height="945.000000pt" viewBox="0 0 945.000000 945.000000"
 preserveAspectRatio="xMidYMid meet">
<metadata>
Created by potrace 1.14, written by Peter Selinger 2001-2017
</metadata>
<g transform="translate(0.000000,945.000000) scale(0.100000,-0.100000)"
fill="#000000" stroke="none">
<path d="M492 9420 c-231 -61 -416 -252 -466 -482 -15 -66 -16 -450 -14 -4243
l3 -4170 27 -73 c36 -101 82 -173 153 -246 73 -75 154 -125 260 -163 l80 -28
4150 -3 c3642 -2 4160 0 4230 13 251 46 464 259 510 510 13 70 15 588 13 4230
l-3 4150 -28 80 c-71 201 -209 340 -409 413 l-73 27 -4180 2 c-4087 2 -4182 2
-4253 -17z m4443 -1404 c154 -33 278 -88 405 -177 52 -37 432 -410 1265 -1243
1288 -1288 1262 -1261 1341 -1448 96 -227 113 -477 49 -705 -32 -111 -109
-267 -177 -358 -69 -91 -2362 -2384 -2453 -2453 -91 -68 -247 -145 -358 -177
-228 -64 -478 -47 -705 49 -187 79 -160 53 -1448 1341 -833 833 -1206 1213
-1243 1265 -262 372 -264 858 -5 1229 62 88 2370 2400 2478 2482 137 105 304
176 474 204 104 17 276 13 377 -9z"/>
<path d="M2905 5648 c5 -25 305 -1999 305 -2011 0 -4 80 -7 178 -7 l177 0 47
198 c130 538 178 742 189 797 l12 60 31 -140 c18 -77 74 -314 126 -527 l94
-388 178 0 c176 0 178 0 183 23 3 12 68 456 145 987 77 531 143 980 146 998
l6 33 -163 -3 -164 -3 -71 -645 c-40 -355 -78 -710 -85 -789 l-12 -144 -19 89
c-10 49 -69 289 -131 534 l-113 445 -137 3 c-135 3 -137 2 -147 -20 -11 -28
-209 -793 -241 -933 l-23 -100 -9 90 c-4 50 -44 397 -87 773 -44 376 -80 687
-80 693 0 5 -70 9 -170 9 l-170 0 5 -22z"/>
<path d="M4947 5663 c-4 -3 -7 -462 -7 -1020 l0 -1013 155 0 155 0 0 465 0
465 390 0 390 0 0 -465 0 -465 155 0 155 0 0 1020 0 1020 -155 0 -155 0 0
-415 0 -415 -390 0 -390 0 0 415 0 415 -148 0 c-82 0 -152 -3 -155 -7z"/>
</g>
</svg>
